<svg xmlns="http://www.w3.org/2000/svg" viewBox="0 0 555 300"><defs><style>.cls-1{fill:#f8e38b;}.cls-2{fill:#231f20;}.cls-3{fill:#f04e98;}.cls-4{fill:#dd0a73;}.cls-5{fill:#fed10a;}.cls-6{fill:#f9b110;}.cls-7{fill:#00bfb3;}.cls-8{fill:#019b8f;}.cls-9{fill:#5f6369;}.cls-10{fill:none;}.cls-11{fill:#797d82;}</style></defs><title>ELK Page Assets Outlined</title><g id="_2_ELK" data-name="2 ELK"><path class="cls-1" d="M170.89,226.54c-.5.5-17.48,15.48-18.47,23.3s10.07,11.07,13.32,7.82,18.47-19.14,15.81-26S173.63,223.8,170.89,226.54Z"/><path class="cls-2" d="M162,260.24a12.66,12.66,0,0,1-5.41-1.3c-3.93-1.93-6-5.39-5.49-9.27.86-6.73,12-17.78,18.53-23.78l.32-.29a6.07,6.07,0,0,1,5.63-1.64c3,.63,5.62,3.28,7.18,7.26,1.32,3.39-.59,8.49-5.86,15.59a114.9,114.9,0,0,1-10.25,11.79A6.46,6.46,0,0,1,162,260.24Zm12.25-33.78a3.38,3.38,0,0,0-2.43,1l-.4.37c-10.54,9.64-17.16,17.92-17.7,22.16-.5,3.9,2.65,5.89,4,6.57,2.67,1.31,5.82,1.38,7,.16,8.69-8.69,17.26-20.09,15.52-24.55-1.22-3.14-3.14-5.19-5.26-5.64A3.93,3.93,0,0,0,174.25,226.46Z"/><path class="cls-2" d="M181,230.89h-.11c-.66-.11-1-.59-1.54-1.2a7,7,0,0,0-5.73-3.08h-.33c-8.26,0-19-23.09-19.12-23.32a1.32,1.32,0,1,1,2.4-1.08C160.72,211.33,169,224,173.32,224h.06a9.51,9.51,0,0,1,8.06,4l.05.06c3.44-1.62,19.67-11.2,24.4-17.31a1.32,1.32,0,0,1,2.09,1.61c-3.18,4.11-10.71,9.28-14.91,12C192,225,182.89,230.89,181,230.89Z"/><path class="cls-2" d="M157.4,211.22a18.94,18.94,0,0,1-5.94-1.44c-.64-.23-1.23-.44-1.72-.59a1.32,1.32,0,1,1,.73-2.53c.54.16,1.18.39,1.88.64,1.89.68,4.75,1.71,6.06,1.12,1.58-.71,3.43-3.38,4-4.34a1.32,1.32,0,0,1,2.27,1.35c-.26.43-2.57,4.23-5.2,5.41A5.08,5.08,0,0,1,157.4,211.22Z"/><path class="cls-2" d="M160.73,219.8a1.32,1.32,0,0,1,0-2.64c2.21,0,3.58-.49,4.95-3.18a1.32,1.32,0,0,1,2.35,1.2C166,219.24,163.29,219.8,160.73,219.8Z"/><path class="cls-2" d="M191.63,229.88a1.31,1.31,0,0,1-.4-.06c-2.54-.8-4.25-2.1-5.07-3.86a5.77,5.77,0,0,1-.13-4.45,1.32,1.32,0,0,1,2.43,1,3.17,3.17,0,0,0,.11,2.36A5.33,5.33,0,0,0,192,227.3a1.32,1.32,0,0,1-.4,2.58Z"/><path class="cls-2" d="M205.37,221.72h-.19a37.18,37.18,0,0,1-7.7-2c-3.68-1.53-2.69-8-2.27-10.77,0-.25.07-.43.08-.52a1.29,1.29,0,0,1,1.32-1.29,1.34,1.34,0,0,1,1.32,1.35,8.45,8.45,0,0,1-.1.87c-1,6.5.14,7.72.67,7.94a34.9,34.9,0,0,0,7.06,1.83,1.32,1.32,0,0,1-.18,2.62Z"/><path class="cls-2" d="M157.15,257.52a.6.6,0,0,1-.16-1.19l11.64-3.22a.6.6,0,0,1,.32,1.17l-11.64,3.22Z"/><path class="cls-2" d="M155.43,252.69c-.74,0-1.3-.81-1.3-1.89s.56-1.89,1.3-1.89,1.3.81,1.3,1.89S156.17,252.69,155.43,252.69Zm0-2.42a1.62,1.62,0,0,0,0,1.07,1.6,1.6,0,0,0,0-1.07Z"/><ellipse class="cls-2" cx="174.04" cy="234.76" rx="1.5" ry="1.9"/><ellipse class="cls-2" cx="166.07" cy="234.55" rx="1.03" ry="1.3"/><path class="cls-2" d="M158.85,253.57c-.61,0-1.07-.64-1.07-1.48s.46-1.48,1.07-1.48,1.08.64,1.08,1.48S159.46,253.57,158.85,253.57Z"/><path class="cls-3" d="M183.38,230.33s39.17-13.64,56.18,3.37S230.5,260.32,216,258.92s-27.35,2.2-32.62-6-5.25-8.75-5.25-8.75Z"/><path class="cls-2" d="M218.94,260.37c-1.06,0-2.08,0-3.06-.14a116.36,116.36,0,0,0-12.26-.36c-9.26.06-17.26.12-21.35-6.27-5.5-8.58-5.48-9.08-5.46-9.52v-.21l5.54-14.59.58-.2a109.63,109.63,0,0,1,22-4.76c16-1.72,28.3,1.2,35.54,8.45,7,7,6.56,12.46,5,15.83-1.84,3.89-6.33,7.24-12.65,9.42A44,44,0,0,1,218.94,260.37Zm-12.47-3.15c3.05,0,6.33.06,9.66.38,9.8.95,23.72-3.27,27-10.13,1.78-3.78.29-8.1-4.45-12.84-15.15-15.14-49.38-4.82-54.24-3.25l-4.83,12.72c.37.71,1.5,2.72,4.93,8.07,3.3,5.16,10.27,5.11,19.11,5.05Z"/><path class="cls-4" d="M182.85,240.28s6.51,10.63,11.85,10.63c9.57,0,17.94.68,28.85,0,2.73-.17,11.08-2.73,13.14-6.66,2.38-4.53-1.63-10.43,0-8.8,15.57,15.32-8.29,24-21.56,22.71s-25,2-29.85-5.43-4.8-7.88-4.8-7.88Z"/><path class="cls-2" d="M202.78,294.24a.6.6,0,0,1-.59-.47c-2.52-11.44-2.39-34.39-2.39-34.62a.58.58,0,0,1,.61-.6.6.6,0,0,1,.6.61c0,.23-.13,23,2.36,34.35a.6.6,0,0,1-.46.72Z"/><path class="cls-2" d="M191.82,294.24a.6.6,0,0,1-.6-.6c0-8.2-2.47-35.36-2.5-35.64a.6.6,0,0,1,1.2-.11c0,.27,2.5,27.49,2.5,35.75A.6.6,0,0,1,191.82,294.24Z"/><path class="cls-2" d="M239.6,294.24a.6.6,0,0,1-.59-.47c-2.5-11.35-9.28-35.42-9.34-35.66a.6.6,0,1,1,1.16-.33c.07.24,6.86,24.34,9.36,35.73a.6.6,0,0,1-.46.72Z"/><path class="cls-2" d="M224.48,294.24a.6.6,0,0,1-.6-.6c0-8.2-2.47-34.17-2.5-34.43a.6.6,0,1,1,1.2-.12c0,.26,2.5,26.28,2.5,34.54A.6.6,0,0,1,224.48,294.24Z"/><path class="cls-2" d="M198.54,296.1c2.66-2.63,5.7-4.67,8.82-.07a.82.82,0,0,1-.65,1.28l-7.57.18A.82.82,0,0,1,198.54,296.1Z"/><path class="cls-2" d="M220.12,296.1c2.66-2.63,5.7-4.67,8.82-.07a.82.82,0,0,1-.65,1.28l-7.57.18A.82.82,0,0,1,220.12,296.1Z"/><path class="cls-2" d="M235.24,296.1c2.66-2.63,5.7-4.67,8.82-.07a.82.82,0,0,1-.65,1.28l-7.57.18A.82.82,0,0,1,235.24,296.1Z"/><path class="cls-2" d="M187.46,296.1c2.66-2.63,5.7-4.67,8.82-.07a.82.82,0,0,1-.65,1.28l-7.57.18A.82.82,0,0,1,187.46,296.1Z"/><path class="cls-2" d="M244.48,248a1.32,1.32,0,1,1,0-2.64,4.22,4.22,0,0,0,3.41-1.35,6.66,6.66,0,0,0,1.35-3.65,10.31,10.31,0,0,1-4.75,1,1.32,1.32,0,1,1,0-2.64c4.09,0,4.74-1.72,4.77-1.79a1.28,1.28,0,0,1,1.34-1,1.33,1.33,0,0,1,1.23,1.14c0,.22.79,5.49-1.92,8.64A6.79,6.79,0,0,1,244.48,248Z"/><path class="cls-2" d="M168.79,231.93a.6.6,0,0,1-.51-.28c-1-1.52-1.89-2.31-2.79-2.35-1.25-.07-2.29,1.31-2.86,2-.13.17-.24.31-.32.39a.6.6,0,1,1-.89-.82c.06-.07.14-.18.25-.31.65-.85,2-2.63,3.87-2.52,1.32.06,2.59,1,3.76,2.92a.6.6,0,0,1-.51.93Z"/><path class="cls-2" d="M171.21,230.61a.6.6,0,0,1-.46-1,5.24,5.24,0,0,1,4.14-2.17,5.43,5.43,0,0,1,3.74,2.22.6.6,0,0,1-1,.7,4.27,4.27,0,0,0-2.82-1.71,4.06,4.06,0,0,0-3.15,1.76A.6.6,0,0,1,171.21,230.61Z"/><path class="cls-1" d="M252.71,154.34c.5.5,17.48,15.48,18.47,23.3s-10.07,11.07-13.32,7.82-18.47-19.14-15.81-26S250,151.59,252.71,154.34Z"/><path class="cls-2" d="M261.59,188a6.46,6.46,0,0,1-4.66-1.64,115,115,0,0,1-10.25-11.79c-5.27-7.1-7.18-12.2-5.86-15.59,1.55-4,4.17-6.63,7.18-7.26a6.07,6.07,0,0,1,5.63,1.64l.32.29c6.55,6,17.67,17,18.53,23.78.49,3.87-1.56,7.34-5.49,9.27A12.67,12.67,0,0,1,261.59,188Zm-12.25-33.78a3.9,3.9,0,0,0-.8.08c-2.12.44-4,2.5-5.26,5.64-1.74,4.47,6.82,15.86,15.52,24.55,1.22,1.22,4.38,1.15,7-.16,1.38-.68,4.53-2.67,4-6.57-.54-4.24-7.16-12.53-17.7-22.16l-.4-.37h0A3.37,3.37,0,0,0,249.35,154.25Z"/><path class="cls-2" d="M242.55,158.68c-2.67,0-22.19-12.41-26.92-18.52a1.32,1.32,0,0,1,2.09-1.61c4.73,6.11,21,15.7,24.4,17.31l.05-.06a9.53,9.53,0,0,1,8.06-4h.06c4.29,0,12.6-12.64,16.71-21.77a1.32,1.32,0,0,1,2.4,1.08c-.11.23-10.87,23.32-19.12,23.32h-.12a7,7,0,0,0-5.95,3.08c-.5.61-.89,1.08-1.54,1.2Z"/><path class="cls-2" d="M266.19,139a5.07,5.07,0,0,1-2.08-.4c-2.63-1.17-4.94-5-5.2-5.41a1.32,1.32,0,0,1,2.27-1.35c.58,1,2.42,3.64,4,4.35,1.31.58,4.17-.44,6.05-1.12.7-.25,1.34-.48,1.88-.64a1.32,1.32,0,1,1,.73,2.53c-.49.14-1.08.36-1.72.59A18.93,18.93,0,0,1,266.19,139Z"/><path class="cls-2" d="M262.87,147.59c-2.57,0-5.23-.56-7.29-4.62a1.32,1.32,0,0,1,2.35-1.2c1.37,2.69,2.74,3.18,4.95,3.18a1.32,1.32,0,0,1,0,2.64Z"/><path class="cls-2" d="M232,157.67a1.32,1.32,0,0,1-.4-2.58c1.81-.57,3-1.39,3.46-2.46a3.23,3.23,0,0,0,.1-2.32,1.32,1.32,0,1,1,2.43-1,5.77,5.77,0,0,1-.13,4.45c-.82,1.76-2.52,3.06-5.06,3.86A1.31,1.31,0,0,1,232,157.67Z"/><path class="cls-2" d="M218.22,149.51a1.32,1.32,0,0,1-.18-2.62,35.11,35.11,0,0,0,7.06-1.83c.53-.22,1.67-1.44.67-7.94a8.45,8.45,0,0,1-.1-.87,1.32,1.32,0,0,1,2.64,0c0,.1,0,.27.07.51.42,2.77,1.42,9.24-2.27,10.77a37.23,37.23,0,0,1-7.7,2Zm10.08-13.26h0Z"/><path class="cls-2" d="M259.18,184.33a.6.6,0,0,1,0-1.21l12.07-.42a.62.62,0,0,1,.62.58.6.6,0,0,1-.58.62l-12.07.42Z"/><path class="cls-2" d="M268.17,180.48c-.74,0-1.3-.81-1.3-1.89s.56-1.89,1.3-1.89,1.3.81,1.3,1.89S268.91,180.48,268.17,180.48Zm.1-1.18h0Zm-.1-1.24a1.6,1.6,0,0,0,0,1.07,1.62,1.62,0,0,0,0-1.07Z"/><ellipse class="cls-2" cx="248.05" cy="162.97" rx="1.5" ry="1.9"/><ellipse class="cls-2" cx="258.16" cy="162.34" rx="1.03" ry="1.3"/><path class="cls-2" d="M264.74,181.36c-.62,0-1.07-.62-1.07-1.48s.45-1.48,1.07-1.48,1.07.62,1.07,1.48S265.37,181.36,264.74,181.36Zm.21-1.13h0Z"/><path class="cls-5" d="M240.22,158.12S201,144.48,184,161.49s9.06,26.62,23.56,25.21,27.35,2.2,32.62-6,5.25-8.75,5.25-8.75Z"/><path class="cls-2" d="M204.66,188.16a44,44,0,0,1-13.88-2.36c-6.32-2.18-10.81-5.52-12.65-9.42-1.59-3.36-2-8.84,5-15.83,7.25-7.25,19.54-10.17,35.54-8.45a109.63,109.63,0,0,1,22,4.76l.58.2,5.54,14.59v.21c0,.44,0,.94-5.46,9.52-4.09,6.38-12.09,6.33-21.35,6.27a116,116,0,0,0-12.26.36C206.74,188.12,205.71,188.16,204.66,188.16Zm5.26-33.87c-9.3,0-18.74,1.92-25,8.14-4.74,4.74-6.24,9.06-4.45,12.84,3.24,6.86,17.15,11.08,27,10.13A120.86,120.86,0,0,1,220,185c8.83.06,15.8.11,19.11-5.05,3.43-5.36,4.57-7.36,4.94-8.07l-4.83-12.72C236.34,158.25,223.27,154.29,209.92,154.29Z"/><path class="cls-6" d="M240.74,168.07s-6.51,10.63-11.85,10.63c-9.57,0-17.94.68-28.85,0-2.73-.17-11.08-2.73-13.14-6.66-2.38-4.53,1.63-10.43,0-8.8-15.57,15.32,8.29,24,21.56,22.71s25,2,29.85-5.43,4.8-7.88,4.8-7.88Z"/><path class="cls-2" d="M216.65,222h-.13a.6.6,0,0,1-.46-.72c2.51-11.39,9.3-34.3,9.36-34.53a.6.6,0,0,1,1.16.34c-.07.23-6.84,23.09-9.34,34.44A.6.6,0,0,1,216.65,222Z"/><path class="cls-2" d="M222.86,224.86a.6.6,0,0,1-.6-.6c0-8.34,11-37.5,11.45-38.74a.6.6,0,0,1,1.13.43c-.11.3-11.37,30.19-11.37,38.31A.6.6,0,0,1,222.86,224.86Z"/><path class="cls-2" d="M197.59,224.86h-.13a.6.6,0,0,1-.46-.72c2.47-11.23-4.17-38-4.24-38.25a.6.6,0,0,1,1.17-.29c.28,1.11,6.78,27.29,4.25,38.8A.6.6,0,0,1,197.59,224.86Z"/><path class="cls-2" d="M202.46,222.19a.6.6,0,0,1-.59-.49c-1.72-8.78-.89-33.72-.86-34.78a.59.59,0,0,1,.62-.58.6.6,0,0,1,.58.62c0,.26-.85,25.86.84,34.51a.6.6,0,0,1-.48.71Z"/><path class="cls-2" d="M220.89,223.89c-2.66-2.63-5.7-4.67-8.82-.07a.82.82,0,0,0,.65,1.28l7.57.18A.82.82,0,0,0,220.89,223.89Z"/><path class="cls-2" d="M202.43,224.79c-2.94-2.31-6.19-4-8.77.92a.82.82,0,0,0,.79,1.2l7.54-.66A.82.82,0,0,0,202.43,224.79Z"/><path class="cls-2" d="M208.07,222.72c-2.66-2.63-5.7-4.67-8.82-.07a.82.82,0,0,0,.65,1.28l7.57.18A.82.82,0,0,0,208.07,222.72Z"/><path class="cls-2" d="M227.22,224.38c-2.66-2.63-5.7-4.67-8.82-.07a.82.82,0,0,0,.65,1.28l7.57.18A.82.82,0,0,0,227.22,224.38Z"/><path class="cls-2" d="M179.11,175.84a6.79,6.79,0,0,1-5.41-2.27c-2.71-3.15-2-8.42-1.92-8.64a1.32,1.32,0,0,1,1.24-1.12,1.35,1.35,0,0,1,1.34,1s.66,1.74,4.75,1.74a1.32,1.32,0,1,1,0,2.64,10.31,10.31,0,0,1-4.75-1,6.67,6.67,0,0,0,1.35,3.65,4.22,4.22,0,0,0,3.41,1.35,1.32,1.32,0,1,1,0,2.64Z"/><path class="cls-2" d="M261.72,160.6H254.8a.6.6,0,1,1,0-1.21h6.92a.6.6,0,1,1,0,1.21Z"/><path class="cls-2" d="M252.39,161.67h-6.92a.6.6,0,1,1,0-1.21h6.92a.6.6,0,1,1,0,1.21Z"/><path class="cls-2" d="M224,64.29a.6.6,0,0,1-.09-1.2c1.06-.17,26.07-4.37,25-30.78a.6.6,0,1,1,1.21,0c1.07,27.49-25.79,32-26.06,32Z"/><path class="cls-2" d="M194.26,62.78a49.45,49.45,0,0,1-5.75-.35c-7.15-.84-18.22-3.7-30.37-12.55a.6.6,0,1,1,.71-1c22.82,16.62,42,12.08,42.18,12a.6.6,0,1,1,.29,1.17A31.57,31.57,0,0,1,194.26,62.78Z"/><path class="cls-2" d="M254.91,30c-2.73,2.52-5.82,4.45-8.72-.27a.82.82,0,0,1,.7-1.26l7.49.11A.82.82,0,0,1,254.91,30Z"/><path class="cls-2" d="M160.55,44.88c.44,3.69.2,7.32-5.33,6.91a.82.82,0,0,1-.61-1.3l4.47-6A.82.82,0,0,1,160.55,44.88Z"/><path class="cls-7" d="M225.12,45.62s13.57,38.78-3.48,55.59-26.6-9-25.17-23.36-2.15-27.07,6.09-32.27,8.76-5.18,8.76-5.18Z"/><path class="cls-2" d="M211.06,108a10.1,10.1,0,0,1-4.39-1c-3.87-1.85-7.19-6.31-9.34-12.55a41.54,41.54,0,0,1-2.17-16.74,114.67,114.67,0,0,0,.38-12.13c0-9.17-.08-17.09,6.31-21.13,8.59-5.42,9.08-5.4,9.52-5.38h.21l14.58,5.51.2.58A107.46,107.46,0,0,1,231.09,67c1.69,15.85-1.25,28-8.52,35.17C218,106.61,214.16,108,211.06,108Zm.29-66.18c-.71.36-2.71,1.48-8.09,4.87-5.16,3.26-5.13,10.15-5.08,18.88a118.3,118.3,0,0,1-.39,12.4c-1,9.65,3.21,23.39,10,26.65,3.79,1.81,8.14.35,12.91-4.36,15.15-14.93,4.92-48.8,3.35-53.64Z"/><path class="cls-8" d="M210.8,98.4c12.06-.67,16.1-16.64,16.1-16.64.35,6.31-5.37,15-7,16.62-10.8,10.82-16.28,1.72-19.3-8.84a32,32,0,0,1-.94-9.46S203.26,98.82,210.8,98.4Z"/><path class="cls-1" d="M209.35,26.77c-.21.67-8.26,21.69-5.55,29.09s13.93,5.26,15.3.9,7.46-25.4,2-30.25S210.51,23.08,209.35,26.77Z"/><path class="cls-2" d="M211.43,62.05c-4.24,0-7.54-2.13-8.86-5.74C200.24,50,204.94,35.08,208,26.78l.15-.41a6,6,0,0,1,4.19-4c2.94-.82,6.47.34,9.67,3.18,2.72,2.41,3.37,7.81,2,16.5a114.62,114.62,0,0,1-3.6,15.13c-.86,2.74-4.48,4.79-8.62,4.89Zm2.8-37.33a4.61,4.61,0,0,0-1.24.16,3.35,3.35,0,0,0-2.38,2.28h0l-.18.51C205.59,41,203.57,51.39,205,55.41c1.37,3.73,5.1,4,6.63,4,2.9-.07,5.67-1.43,6.17-3,3.65-11.68,6-25.69,2.37-28.87A9.53,9.53,0,0,0,214.23,24.73Z"/><path class="cls-2" d="M220.24,26.53a3.09,3.09,0,0,1-1.61-.68,6.86,6.86,0,0,0-6.53-1.09c-7.71,2.76-25.2-16-25.37-16.22a1.32,1.32,0,1,1,2-1.77c6.73,7.43,18.57,16.94,22.53,15.51a9.41,9.41,0,0,1,8.85,1.36l.19.12c3-1.79,19.27-13.33,21.79-20.55a1.32,1.32,0,1,1,2.49.87c-3,8.48-22.06,22.15-24.05,22.44Zm.33-2.58Z"/><path class="cls-2" d="M188.09,15.59c-.66,0-1.31,0-1.92,0s-1.29,0-1.8,0a1.32,1.32,0,0,1-.09-2.63c.56,0,1.23,0,2,0,2,.06,5,.16,6-.8,1.26-1.16,2.18-4.34,2.41-5.36a1.32,1.32,0,1,1,2.58.56c-.11.49-1.1,4.82-3.2,6.74C192.64,15.36,190.32,15.59,188.09,15.59Z"/><path class="cls-2" d="M197.6,22.29a1.32,1.32,0,0,1-.41-2.57c2.07-.68,3.2-1.57,3.65-4.54a1.32,1.32,0,0,1,2.61.39c-.68,4.5-3,5.86-5.43,6.65A1.32,1.32,0,0,1,197.6,22.29Z"/><path class="cls-2" d="M232,22.84a7.62,7.62,0,0,1-5.82-2.09,5.82,5.82,0,0,1-1.53-4.19,1.32,1.32,0,0,1,2.63.19,3.21,3.21,0,0,0,.84,2.22,5.34,5.34,0,0,0,4,1.23h0a1.32,1.32,0,0,1,0,2.64Z"/><path class="cls-2" d="M240.27,12c-.59,0-1.19,0-1.77-.07-3.5-.28-4.77-5.24-5.49-9.53,0-.25-.07-.43-.09-.52a1.29,1.29,0,0,1,.85-1.64,1.34,1.34,0,0,1,1.67.87,8.29,8.29,0,0,1,.17.85c1.09,6.49,2.53,7.3,3.1,7.34a34.25,34.25,0,0,0,7.2-.44,1.32,1.32,0,0,1,.46,2.6A39.84,39.84,0,0,1,240.27,12Z"/><path class="cls-2" d="M209.25,52.11a.9.9,0,0,1-.28,0,2.27,2.27,0,0,1-1.26-2.44.77.77,0,0,1,1-.52,2,2,0,0,1,1,1,2.31,2.31,0,0,1,.28,1.06.93.93,0,0,1-.45.86A.74.74,0,0,1,209.25,52.11Zm-.81-2.36h0a.14.14,0,0,0,0,.08,1.63,1.63,0,0,0,.81,1.57.15.15,0,0,0,.09,0s.07-.1.07-.25a1.64,1.64,0,0,0-.2-.73h0a1.33,1.33,0,0,0-.64-.67Z"/><ellipse class="cls-2" cx="210.9" cy="56.46" rx="2.14" ry="1.76" transform="translate(65.75 219.55) rotate(-63.32)"/><path class="cls-2" d="M213.15,52.41a1.26,1.26,0,0,1-.56-.13,1.39,1.39,0,0,1-.73-1.06,2.22,2.22,0,0,1,.22-1.32h0a1.55,1.55,0,1,1,2.71,1.34,2.21,2.21,0,0,1-.91,1A1.53,1.53,0,0,1,213.15,52.41Zm-.13-2a1.18,1.18,0,0,0-.13.68.29.29,0,0,0,.48.24,1.18,1.18,0,0,0,.47-.52c.23-.47.13-.88,0-1s-.56.09-.79.56Z"/><path class="cls-2" d="M220.11,149.4H220a.6.6,0,0,1-.48-.71c2.46-12.84-.26-54.73-.29-55.15a.6.6,0,0,1,.56-.64.61.61,0,0,1,.64.56c.11,1.73,2.76,42.47.27,55.46A.6.6,0,0,1,220.11,149.4Z"/><path class="cls-2" d="M205.15,149.4a.61.61,0,0,1-.59-.47c-4.53-20.18.67-56.37.73-56.73a.6.6,0,0,1,1.2.17c-.05.36-5.22,36.33-.74,56.29a.6.6,0,0,1-.46.72Z"/><path class="cls-2" d="M215.91,151.26c2.63-2.63,5.64-4.67,8.72-.07a.82.82,0,0,1-.65,1.28l-7.49.18A.82.82,0,0,1,215.91,151.26Z"/><path class="cls-2" d="M200.84,151.26c2.63-2.63,5.64-4.67,8.72-.07a.82.82,0,0,1-.65,1.28l-7.49.18A.82.82,0,0,1,200.84,151.26Z"/><path class="cls-2" d="M205.82,29.14a.6.6,0,0,1,0-1.21l5.84-.36a.6.6,0,1,1,.07,1.21l-5.84.36Z"/><path class="cls-2" d="M219.41,37.09h-.05l-10.79-.81a.69.69,0,0,1,.1-1.37l10.79.81a.69.69,0,0,1-.05,1.37Z"/><path class="cls-2" d="M217.25,29.39a.6.6,0,0,1,0-1.21l6.83-.5a.61.61,0,0,1,.65.56.6.6,0,0,1-.56.65l-6.83.5Z"/><path class="cls-9" d="M345.18,86.59h-17.8v-30h17.8v6.5h-9.7v4.72h9v6.5h-9V80h9.7Z"/><path class="cls-9" d="M367.07,76.59h-7.16V63.74h7.16v1.33H361.4V69.2h5.33v1.32H361.4v4.73h5.67Z"/><path class="cls-9" d="M371.16,76.59H369.7V62.91h1.46Z"/><path class="cls-9" d="M380.18,76.59l-.29-1.37h-.07a4.06,4.06,0,0,1-1.44,1.23,4.39,4.39,0,0,1-1.79.32,3.22,3.22,0,0,1-2.25-.74,2.69,2.69,0,0,1-.81-2.1q0-2.92,4.67-3.06l1.63-.05v-.6a2.45,2.45,0,0,0-.49-1.67,2,2,0,0,0-1.56-.54,6.36,6.36,0,0,0-2.72.74l-.45-1.12a6.85,6.85,0,0,1,1.56-.61,6.76,6.76,0,0,1,1.7-.22,3.67,3.67,0,0,1,2.55.76,3.19,3.19,0,0,1,.83,2.45v6.57Zm-3.3-1a3,3,0,0,0,2.14-.75,2.76,2.76,0,0,0,.78-2.09v-.87l-1.46.06a5.3,5.3,0,0,0-2.51.54,1.63,1.63,0,0,0-.77,1.49,1.5,1.5,0,0,0,.48,1.2A2,2,0,0,0,376.88,75.56Z"/><path class="cls-9" d="M390.48,74a2.41,2.41,0,0,1-1,2.07,4.71,4.71,0,0,1-2.81.73,6.12,6.12,0,0,1-3-.61V74.8a7.22,7.22,0,0,0,1.49.55,6.22,6.22,0,0,0,1.53.2,3.48,3.48,0,0,0,1.76-.36,1.26,1.26,0,0,0,.13-2.07,7.7,7.7,0,0,0-1.9-.94,10.28,10.28,0,0,1-1.91-.87,2.59,2.59,0,0,1-.84-.85,2.2,2.2,0,0,1-.28-1.13,2.16,2.16,0,0,1,1-1.86,4.46,4.46,0,0,1,2.63-.68,7.69,7.69,0,0,1,3,.63l-.52,1.19a7,7,0,0,0-2.63-.6,3,3,0,0,0-1.56.33,1,1,0,0,0-.53.9,1.1,1.1,0,0,0,.2.66,2,2,0,0,0,.64.52,14.24,14.24,0,0,0,1.69.71,6.3,6.3,0,0,1,2.32,1.26A2.22,2.22,0,0,1,390.48,74Z"/><path class="cls-9" d="M396,75.56a4.77,4.77,0,0,0,.75-.06,4.84,4.84,0,0,0,.57-.12V76.5a2.66,2.66,0,0,1-.7.19,5.23,5.23,0,0,1-.83.07q-2.79,0-2.79-2.94V68.09h-1.38v-.7l1.38-.61.62-2.06h.84V67h2.79v1.13h-2.79v5.67a2,2,0,0,0,.41,1.34A1.44,1.44,0,0,0,396,75.56Z"/><path class="cls-9" d="M399.08,64.34a1,1,0,0,1,.25-.73.91.91,0,0,1,1.22,0,1,1,0,0,1,.25.73,1,1,0,0,1-.25.73.89.89,0,0,1-1.22,0A1,1,0,0,1,399.08,64.34Zm1.58,12.24H399.2V67h1.46Z"/><path class="cls-9" d="M407.61,76.76a4.11,4.11,0,0,1-3.24-1.29,5.29,5.29,0,0,1-1.15-3.64,5.46,5.46,0,0,1,1.17-3.74,4.19,4.19,0,0,1,3.32-1.32,6.58,6.58,0,0,1,1.39.15,4.57,4.57,0,0,1,1.09.35l-.45,1.24a6.86,6.86,0,0,0-1.05-.32,4.71,4.71,0,0,0-1-.13q-2.94,0-2.94,3.74a4.46,4.46,0,0,0,.72,2.72,2.49,2.49,0,0,0,2.12.95A6.49,6.49,0,0,0,410,75v1.29A5.26,5.26,0,0,1,407.61,76.76Z"/><path class="cls-9" d="M418.54,74a2.41,2.41,0,0,1-1,2.07,4.71,4.71,0,0,1-2.81.73,6.12,6.12,0,0,1-3-.61V74.8a7.22,7.22,0,0,0,1.49.55,6.22,6.22,0,0,0,1.53.2,3.48,3.48,0,0,0,1.76-.36,1.26,1.26,0,0,0,.13-2.07,7.7,7.7,0,0,0-1.9-.94,10.28,10.28,0,0,1-1.91-.87,2.59,2.59,0,0,1-.84-.85,2.2,2.2,0,0,1-.28-1.13,2.16,2.16,0,0,1,1-1.86,4.46,4.46,0,0,1,2.63-.68,7.69,7.69,0,0,1,3,.63l-.52,1.19a7,7,0,0,0-2.63-.6,3,3,0,0,0-1.56.33,1,1,0,0,0-.53.9,1.1,1.1,0,0,0,.2.66,2,2,0,0,0,.64.52,14.24,14.24,0,0,0,1.69.71,6.3,6.3,0,0,1,2.32,1.26A2.22,2.22,0,0,1,418.54,74Z"/><path class="cls-9" d="M425,76.76a4.42,4.42,0,0,1-3.37-1.3,5,5,0,0,1-1.24-3.61,5.58,5.58,0,0,1,1.15-3.7,3.81,3.81,0,0,1,3.08-1.37A3.63,3.63,0,0,1,427.47,68a4.56,4.56,0,0,1,1.05,3.14V72h-6.64a3.82,3.82,0,0,0,.86,2.58,3,3,0,0,0,2.29.88,7.76,7.76,0,0,0,3.08-.65v1.3a7.72,7.72,0,0,1-1.46.48A8.22,8.22,0,0,1,425,76.76Zm-.4-8.76a2.38,2.38,0,0,0-1.85.76,3.48,3.48,0,0,0-.81,2.09h5a3.21,3.21,0,0,0-.62-2.11A2.17,2.17,0,0,0,424.59,68Z"/><path class="cls-9" d="M436.94,76.59l-.29-1.37h-.07a4.06,4.06,0,0,1-1.44,1.23,4.39,4.39,0,0,1-1.79.32A3.22,3.22,0,0,1,431.1,76a2.69,2.69,0,0,1-.81-2.1q0-2.92,4.67-3.06l1.63-.05v-.6a2.45,2.45,0,0,0-.49-1.67,2,2,0,0,0-1.56-.54,6.36,6.36,0,0,0-2.72.74l-.45-1.12a6.85,6.85,0,0,1,1.56-.61,6.76,6.76,0,0,1,1.7-.22,3.67,3.67,0,0,1,2.55.76A3.19,3.19,0,0,1,438,70v6.57Zm-3.3-1a3,3,0,0,0,2.14-.75,2.76,2.76,0,0,0,.78-2.09v-.87l-1.46.06a5.3,5.3,0,0,0-2.51.54,1.63,1.63,0,0,0-.77,1.49,1.5,1.5,0,0,0,.48,1.2A2,2,0,0,0,433.64,75.56Z"/><path class="cls-9" d="M445.42,66.78a5.71,5.71,0,0,1,1.15.11l-.2,1.35a5,5,0,0,0-1.05-.13,2.57,2.57,0,0,0-2,.95,3.47,3.47,0,0,0-.83,2.36v5.17H441V67h1.2l.17,1.78h.07a4.23,4.23,0,0,1,1.29-1.45A2.91,2.91,0,0,1,445.42,66.78Z"/><path class="cls-9" d="M452.22,76.76A4.11,4.11,0,0,1,449,75.48a5.29,5.29,0,0,1-1.15-3.64A5.46,5.46,0,0,1,449,68.1a4.19,4.19,0,0,1,3.32-1.32,6.58,6.58,0,0,1,1.39.15,4.57,4.57,0,0,1,1.09.35l-.45,1.24a6.86,6.86,0,0,0-1.05-.32,4.71,4.71,0,0,0-1-.13q-2.94,0-2.94,3.74a4.46,4.46,0,0,0,.72,2.72,2.49,2.49,0,0,0,2.12.95,6.49,6.49,0,0,0,2.47-.52v1.29A5.26,5.26,0,0,1,452.22,76.76Z"/><path class="cls-9" d="M463.53,76.59V70.36A2.51,2.51,0,0,0,463,68.6a2.18,2.18,0,0,0-1.68-.58,2.75,2.75,0,0,0-2.22.83,4.18,4.18,0,0,0-.7,2.71v5h-1.46V62.91h1.46v4.14a9,9,0,0,1-.07,1.24h.09a3,3,0,0,1,1.23-1.09,4,4,0,0,1,1.81-.4,3.72,3.72,0,0,1,2.65.84A3.54,3.54,0,0,1,465,70.3v6.28Z"/><path class="cls-9" d="M359.91,156.59V143.74h1.49v11.5h5.67v1.35Z"/><path class="cls-9" d="M377.35,151.76a5.31,5.31,0,0,1-1.19,3.68,4.18,4.18,0,0,1-3.28,1.32,4.34,4.34,0,0,1-2.29-.61,4,4,0,0,1-1.55-1.74,6.06,6.06,0,0,1-.54-2.65,5.31,5.31,0,0,1,1.18-3.67,4.17,4.17,0,0,1,3.27-1.31,4.07,4.07,0,0,1,3.21,1.34A5.29,5.29,0,0,1,377.35,151.76Zm-7.34,0a4.57,4.57,0,0,0,.74,2.81,2.93,2.93,0,0,0,4.35,0,4.56,4.56,0,0,0,.74-2.82,4.48,4.48,0,0,0-.74-2.79,2.61,2.61,0,0,0-2.19-1,2.57,2.57,0,0,0-2.16.94A4.53,4.53,0,0,0,370,151.76Z"/><path class="cls-9" d="M387.79,147v.92l-1.78.21a3.13,3.13,0,0,1,.63,1.92,2.85,2.85,0,0,1-1,2.26,3.9,3.9,0,0,1-2.65.84,4.42,4.42,0,0,1-.81-.07,1.44,1.44,0,0,0-.93,1.24.63.63,0,0,0,.33.58,2.38,2.38,0,0,0,1.12.19h1.71a3.82,3.82,0,0,1,2.4.66,2.29,2.29,0,0,1,.84,1.92,2.74,2.74,0,0,1-1.28,2.44,6.87,6.87,0,0,1-3.74.84,5.11,5.11,0,0,1-2.91-.7,2.27,2.27,0,0,1-1-2,2.23,2.23,0,0,1,.56-1.52,2.86,2.86,0,0,1,1.58-.87,1.53,1.53,0,0,1-.62-.52,1.38,1.38,0,0,1-.25-.82,1.55,1.55,0,0,1,.28-.92,3,3,0,0,1,.89-.76,2.6,2.6,0,0,1-1.22-1,3.07,3.07,0,0,1-.47-1.69,3.12,3.12,0,0,1,.95-2.44,3.88,3.88,0,0,1,2.69-.86,4.89,4.89,0,0,1,1.36.18Zm-7.68,11.25a1.31,1.31,0,0,0,.66,1.19,3.64,3.64,0,0,0,1.89.4,5.27,5.27,0,0,0,2.72-.55,1.68,1.68,0,0,0,.88-1.49,1.18,1.18,0,0,0-.48-1.09,3.75,3.75,0,0,0-1.82-.3h-1.75a2.3,2.3,0,0,0-1.55.47A1.7,1.7,0,0,0,380.11,158.2Zm.79-8.17a2,2,0,0,0,.57,1.53,2.28,2.28,0,0,0,1.59.52,1.86,1.86,0,0,0,2.14-2.07,1.91,1.91,0,0,0-2.16-2.17,2.14,2.14,0,0,0-1.58.55A2.23,2.23,0,0,0,380.9,150Z"/><path class="cls-9" d="M396,154a2.41,2.41,0,0,1-1,2.07,4.71,4.71,0,0,1-2.81.73,6.12,6.12,0,0,1-3-.61V154.8a7.22,7.22,0,0,0,1.49.55,6.22,6.22,0,0,0,1.53.2,3.48,3.48,0,0,0,1.76-.36,1.26,1.26,0,0,0,.13-2.07,7.7,7.7,0,0,0-1.9-.94,10.28,10.28,0,0,1-1.91-.87,2.59,2.59,0,0,1-.84-.85,2.2,2.2,0,0,1-.28-1.13,2.16,2.16,0,0,1,1-1.86,4.46,4.46,0,0,1,2.63-.68,7.69,7.69,0,0,1,3,.63l-.52,1.19a7,7,0,0,0-2.63-.6,3,3,0,0,0-1.56.33,1,1,0,0,0-.53.9,1.1,1.1,0,0,0,.2.66,2,2,0,0,0,.64.52,14.24,14.24,0,0,0,1.69.71,6.3,6.3,0,0,1,2.32,1.26A2.22,2.22,0,0,1,396,154Z"/><path class="cls-9" d="M401.46,155.56a4.77,4.77,0,0,0,.75-.06,4.84,4.84,0,0,0,.57-.12v1.12a2.66,2.66,0,0,1-.7.19,5.23,5.23,0,0,1-.83.07q-2.79,0-2.79-2.94v-5.73h-1.38v-.7l1.38-.61.62-2.06h.84V147h2.79v1.13h-2.79v5.67a2,2,0,0,0,.41,1.34A1.44,1.44,0,0,0,401.46,155.56Z"/><path class="cls-9" d="M410.63,156.59l-.29-1.37h-.07a4.06,4.06,0,0,1-1.44,1.23,4.39,4.39,0,0,1-1.79.32,3.22,3.22,0,0,1-2.25-.74,2.69,2.69,0,0,1-.81-2.1q0-2.92,4.67-3.06l1.63-.05v-.6a2.45,2.45,0,0,0-.49-1.67,2,2,0,0,0-1.56-.54,6.36,6.36,0,0,0-2.72.74l-.45-1.12a6.85,6.85,0,0,1,1.56-.61,6.76,6.76,0,0,1,1.7-.22,3.67,3.67,0,0,1,2.55.76,3.19,3.19,0,0,1,.83,2.45v6.57Zm-3.3-1a3,3,0,0,0,2.14-.75,2.76,2.76,0,0,0,.78-2.09v-.87l-1.46.06a5.3,5.3,0,0,0-2.51.54,1.63,1.63,0,0,0-.77,1.49,1.5,1.5,0,0,0,.48,1.2A2,2,0,0,0,407.33,155.56Z"/><path class="cls-9" d="M420.93,154a2.41,2.41,0,0,1-1,2.07,4.71,4.71,0,0,1-2.81.73,6.12,6.12,0,0,1-3-.61V154.8a7.22,7.22,0,0,0,1.49.55,6.22,6.22,0,0,0,1.53.2,3.48,3.48,0,0,0,1.76-.36,1.26,1.26,0,0,0,.13-2.07,7.7,7.7,0,0,0-1.9-.94,10.28,10.28,0,0,1-1.91-.87,2.59,2.59,0,0,1-.84-.85,2.2,2.2,0,0,1-.28-1.13,2.16,2.16,0,0,1,1-1.86,4.46,4.46,0,0,1,2.63-.68,7.69,7.69,0,0,1,3,.63l-.52,1.19a7,7,0,0,0-2.63-.6,3,3,0,0,0-1.56.33,1,1,0,0,0-.53.9,1.1,1.1,0,0,0,.2.66,2,2,0,0,0,.64.52,14.24,14.24,0,0,0,1.69.71,6.3,6.3,0,0,1,2.32,1.26A2.22,2.22,0,0,1,420.93,154Z"/><path class="cls-9" d="M429.9,156.59v-6.23a2.51,2.51,0,0,0-.54-1.76,2.18,2.18,0,0,0-1.68-.58,2.75,2.75,0,0,0-2.22.83,4.18,4.18,0,0,0-.7,2.71v5H423.3V142.91h1.46v4.14a9,9,0,0,1-.07,1.24h.09A3,3,0,0,1,426,147.2a4,4,0,0,1,1.81-.4,3.72,3.72,0,0,1,2.65.84,3.54,3.54,0,0,1,.88,2.67v6.28Z"/><path class="cls-9" d="M369.19,244.59h-1.76l-4.68-6.23-1.34,1.2v5h-1.49V231.74h1.49v6.37l5.83-6.37H369l-5.17,5.58Z"/><path class="cls-9" d="M370.61,232.34a1,1,0,0,1,.25-.73.91.91,0,0,1,1.22,0,1,1,0,0,1,.25.73,1,1,0,0,1-.25.73.89.89,0,0,1-1.22,0A1,1,0,0,1,370.61,232.34Zm1.58,12.24h-1.46V235h1.46Z"/><path class="cls-9" d="M379.77,234.8a3.58,3.58,0,0,1,2.95,1.3,6.94,6.94,0,0,1,0,7.36,3.57,3.57,0,0,1-2.94,1.31,4.17,4.17,0,0,1-1.72-.35,3.24,3.24,0,0,1-1.3-1.07h-.11l-.31,1.24h-1V230.91h1.46v3.32q0,1.12-.07,2h.07A3.46,3.46,0,0,1,379.77,234.8Zm-.21,1.22a2.55,2.55,0,0,0-2.15.86,6.61,6.61,0,0,0,0,5.79,2.57,2.57,0,0,0,2.17.87,2.25,2.25,0,0,0,2-1,5,5,0,0,0,.66-2.82,4.84,4.84,0,0,0-.66-2.8A2.34,2.34,0,0,0,379.56,236Z"/><path class="cls-9" d="M392.24,244.59l-.29-1.37h-.07a4.06,4.06,0,0,1-1.44,1.23,4.39,4.39,0,0,1-1.79.32,3.22,3.22,0,0,1-2.25-.74,2.69,2.69,0,0,1-.81-2.1q0-2.92,4.67-3.06l1.63-.05v-.6a2.45,2.45,0,0,0-.49-1.67,2,2,0,0,0-1.56-.54,6.36,6.36,0,0,0-2.72.74l-.45-1.12a6.85,6.85,0,0,1,1.56-.61,6.76,6.76,0,0,1,1.7-.22,3.67,3.67,0,0,1,2.55.76,3.19,3.19,0,0,1,.83,2.45v6.57Zm-3.3-1a3,3,0,0,0,2.14-.75,2.76,2.76,0,0,0,.78-2.09v-.87l-1.46.06a5.3,5.3,0,0,0-2.51.54,1.63,1.63,0,0,0-.77,1.49,1.5,1.5,0,0,0,.48,1.2A2,2,0,0,0,388.95,243.56Z"/><path class="cls-9" d="M402.92,244.59v-6.23a2.51,2.51,0,0,0-.54-1.76,2.18,2.18,0,0,0-1.68-.58,2.77,2.77,0,0,0-2.21.82,4.13,4.13,0,0,0-.7,2.7v5.05h-1.46V235h1.19l.24,1.32h.07a3,3,0,0,1,1.26-1.1,4.08,4.08,0,0,1,1.8-.39,3.66,3.66,0,0,1,2.62.84,3.57,3.57,0,0,1,.88,2.69v6.28Z"/><path class="cls-9" d="M413.3,244.59l-.29-1.37h-.07a4.06,4.06,0,0,1-1.44,1.23,4.39,4.39,0,0,1-1.79.32,3.22,3.22,0,0,1-2.25-.74,2.69,2.69,0,0,1-.81-2.1q0-2.92,4.67-3.06l1.63-.05v-.6a2.45,2.45,0,0,0-.49-1.67,2,2,0,0,0-1.56-.54,6.36,6.36,0,0,0-2.72.74l-.45-1.12a6.85,6.85,0,0,1,1.56-.61,6.76,6.76,0,0,1,1.7-.22,3.67,3.67,0,0,1,2.55.76,3.19,3.19,0,0,1,.83,2.45v6.57Zm-3.3-1a3,3,0,0,0,2.14-.75,2.76,2.76,0,0,0,.78-2.09v-.87l-1.46.06a5.3,5.3,0,0,0-2.51.54,1.63,1.63,0,0,0-.77,1.49,1.5,1.5,0,0,0,.48,1.2A2,2,0,0,0,410,243.56Z"/><path class="cls-9" d="M327.38,165.59v-30h8.1V159H347v6.54Z"/><path class="cls-9" d="M353,252.59h-9.15l-5.93-11.46-2.4,1.44v10h-8.14v-30h8.14v13a35.54,35.54,0,0,1,2.48-3.83l6.3-9.19h8.86L343.71,236Z"/><rect class="cls-10" x="0.5" y="-0.5" width="555" height="300"/><path class="cls-9" d="M85.18,91.47a.92.92,0,0,1-.1.44.4.4,0,0,1-.36.25l-.17,0-.17,0a6.74,6.74,0,0,0-1.87.39,6.74,6.74,0,0,1-1.87.39q-2.41,0-2.42-3.66,0-2.88.15-4.56c0-.15,0-.23,0-.24a2.34,2.34,0,0,0,0-.31,2.18,2.18,0,0,1,0-.29.77.77,0,0,1,.75-.81l2.31-.44a13.57,13.57,0,0,1,2.27-.28,1.84,1.84,0,0,1,.76.15.65.65,0,0,1,.45.58q0,.56-.74.56l-.28,0-.28,0a14.2,14.2,0,0,0-3.32.54l-.22,0c-.07,0-.12.1-.15.22a15.41,15.41,0,0,0-.17,2.82c0,.21.1.31.29.31a4.79,4.79,0,0,0,1.13-.19,4.79,4.79,0,0,1,1.13-.2,2.41,2.41,0,0,1,1,.27,3.09,3.09,0,0,1,.15.58q0,.38-.22.41l-.48.06a.62.62,0,0,0-.33-.08,7.14,7.14,0,0,0-1.26.13l-1.25.26-.16,0s-.08.07-.1.18a4,4,0,0,0,0,.44,11.19,11.19,0,0,0,0,1.38q.15.87.83.87a6.1,6.1,0,0,0,1.67-.35A6.17,6.17,0,0,1,83.87,91Q84.88,91,85.18,91.47Z"/><path class="cls-9" d="M92.13,92.2a10,10,0,0,1-3.42.58,2.09,2.09,0,0,1-2-1,4.72,4.72,0,0,1-.44-2.28q0-.88.14-2.62t.13-2.62c0-.11,0-.28,0-.52s0-.42,0-.54a3.17,3.17,0,0,1,0-.4.92.92,0,0,1,.74-.36q.42,0,.65.54a2.28,2.28,0,0,1,.18.9q0,1-.2,3t-.19,3q0,1.77,1,1.77A4.12,4.12,0,0,0,90,91.38a4.13,4.13,0,0,1,1.29-.31.71.71,0,0,1,.64.38A1.44,1.44,0,0,1,92.13,92.2Z"/><path class="cls-9" d="M101.42,91.39a.73.73,0,0,1-.5.65,2.08,2.08,0,0,1-.85.18q-2.09,0-4.2-3.9-1.26,1.46-1.26,2a4.09,4.09,0,0,0,.34,2l0,.42a.91.91,0,0,1-.66.38q-.5,0-.83-.79t-.34-5.56a24.47,24.47,0,0,1,.2-3.79.66.66,0,0,1,.69-.63,1.56,1.56,0,0,1,.81.29q.45.28.45.62a.31.31,0,0,1-.13.3l-.24.13a10,10,0,0,0-.24,2.09q-.09,1.53-.12,2.34,4-5.53,5.07-5.54a1,1,0,0,1,.37.09c.11.14.21.29.31.44a.86.86,0,0,1,.2.48A.49.49,0,0,1,100,84a.8.8,0,0,1-.31-.09l0,0q-.36,0-1.46,1.36a4.34,4.34,0,0,0-1.1,1.73,5.4,5.4,0,0,0,1,2.49q1.05,1.72,1.84,1.73a1.26,1.26,0,0,0,.4-.13,1.29,1.29,0,0,1,.49-.13C101.23,90.91,101.42,91.07,101.42,91.39Z"/><path class="cls-9" d="M111.43,91.11a1.55,1.55,0,0,1-1.07,1.41,4.25,4.25,0,0,1-1.87.41,7.24,7.24,0,0,1-2.22-.42q-1.57-.54-1.58-1.26a.67.67,0,0,1,.66-.66,1.07,1.07,0,0,1,.75.33l.63.54a4.16,4.16,0,0,0,1.89.3q1.21,0,1.21-.55t-1.14-1.29l-1.59-1a6.24,6.24,0,0,1-1.48-1.31,3,3,0,0,1-.62-1.86,3.72,3.72,0,0,1,.81-2.35A2.63,2.63,0,0,1,108,82.24a2.92,2.92,0,0,1,1.88.61,2.75,2.75,0,0,1,1,1.7q0,.42.18,1.25a1.63,1.63,0,0,1,.06.36,2.1,2.1,0,0,1-.18.92.74.74,0,0,1-.71.51.86.86,0,0,1-.76-.77,2.75,2.75,0,0,1,.09-.58,2.82,2.82,0,0,0,.09-.58q0-2-1.35-2a1.56,1.56,0,0,0-1.26.64,2.2,2.2,0,0,0-.51,1.4,2.79,2.79,0,0,0,1.29,2.1l2.38,1.59Q111.44,90.27,111.43,91.11Z"/><path class="cls-9" d="M115.95,87.22q0,.41-1.23.57,0,.33,0,1.5v1a6.41,6.41,0,0,0,.09.89,6.23,6.23,0,0,1,.09.87.54.54,0,0,1-.24.43.78.78,0,0,1-.48.19q-.37,0-.63-.65a2.61,2.61,0,0,1-.2-1V87.86l-.79-.13q-.39-.12-.39-.35a.38.38,0,0,1,0-.13,1.09,1.09,0,0,1,.87-.56h.09l.09,0q.31,0,.3-.74V84.88a.71.71,0,0,1-.08-.29.44.44,0,0,1,.23-.35.78.78,0,0,1,.44-.16.83.83,0,0,1,.59.29A.89.89,0,0,1,115,85a2.32,2.32,0,0,1-.11.71,2.1,2.1,0,0,0-.1.73v.06Q115.95,86.62,115.95,87.22Z"/><path class="cls-9" d="M121.32,90a21,21,0,0,1-.12,2.73q-.08.46-.63.46-.84,0-.75-.84a3.57,3.57,0,0,1-1.56.36,3,3,0,0,1-1.48-.39,1.36,1.36,0,0,1-.84-1.19q0-.7,1-1.32a3.08,3.08,0,0,1,1.64-.56h1.27v-.36q0-1.56-.93-1.56-1.19,0-1.19,1.1,0,.37-.42.37a.84.84,0,0,1-.53-.23.65.65,0,0,1-.28-.49,1.77,1.77,0,0,1,.6-1.38,2.08,2.08,0,0,1,1.44-.54Q121.32,86.21,121.32,90Zm-1.52.54c0-.2-.15-.3-.45-.3q-1.87,0-1.87.89,0,.48.83.48a1.76,1.76,0,0,0,1-.29A.91.91,0,0,0,119.8,90.58Z"/><path class="cls-9" d="M127.66,90.89A1.69,1.69,0,0,1,127,92a3.06,3.06,0,0,1-1.13.73,3.34,3.34,0,0,1-1,.15,2.35,2.35,0,0,1-1.85-.75,2.8,2.8,0,0,1-.67-1.94,6.6,6.6,0,0,1,.62-2.58q.73-1.71,1.71-1.71a2.84,2.84,0,0,1,1.3.42,1.86,1.86,0,0,1,.95.93,3.25,3.25,0,0,1,.12.92,3.36,3.36,0,0,1-.19,1q-.24.75-.6.75a.85.85,0,0,1-.48-.15.47.47,0,0,1-.27-.4s0-.12.14-.34a2.54,2.54,0,0,0,.07-.82,3.44,3.44,0,0,0,0-.72c-.06-.31-.2-.46-.42-.46q-.74,0-1.14,1.27a6.22,6.22,0,0,0-.3,1.9q0,1.6,1,1.6a1.57,1.57,0,0,0,.93-.42,2.42,2.42,0,0,0,.68-.79q.24-.48.58-.48a.58.58,0,0,1,.43.26A.81.81,0,0,1,127.66,90.89Z"/><path class="cls-9" d="M134.29,93.05a1.74,1.74,0,0,1-.9.42q-.44,0-1.26-.9-.58-.63-1.16-1.27-.33-.39-1-1.09l0,0v1.32a1,1,0,0,0,.1.35,1,1,0,0,1,.1.37.45.45,0,0,1-.22.37.75.75,0,0,1-.44.16.87.87,0,0,1-.9-.9v-2a5.14,5.14,0,0,1,0-.55,5,5,0,0,0,0-.55v-4a7,7,0,0,0-.12-1.47,2,2,0,0,1-.06-.39.63.63,0,0,1,.34-.51,1,1,0,0,1,.6-.21.9.9,0,0,1,.49.17.48.48,0,0,1,.26.38,3,3,0,0,1-.1.42,4.71,4.71,0,0,0-.1,1.11q0,.24,0,4l1.63-1.48a5.64,5.64,0,0,1,1.52-1.2q.8,0,.77,1v.15a15.12,15.12,0,0,0-1.67,1.19q-1.3,1-1.3,1.33s.27.34.81.95l1,1.08a5.57,5.57,0,0,0,1.69,1.29Z"/><path class="cls-9" d="M137.46,91.61q0,1.14-1.3,1.14a3,3,0,0,1-.92-.29,1.32,1.32,0,0,1-.18-.63q0-.87,1.07-.87a2.29,2.29,0,0,1,.79.15Q137.46,91.31,137.46,91.61Zm.44-8.53a.43.43,0,0,1-.08.22l-.14.21a8.88,8.88,0,0,0-.51,2.18q-.07.47-.22,2.25a2.11,2.11,0,0,1,0,.29,2.19,2.19,0,0,0,0,.34,4.39,4.39,0,0,0,.17,1,3.42,3.42,0,0,1-.3.33,1.38,1.38,0,0,1-.36,0,1.08,1.08,0,0,1-.55-.15,2.27,2.27,0,0,1-.23-1.08,11.19,11.19,0,0,1,.28-2,11.24,11.24,0,0,0,.28-2,5.22,5.22,0,0,0-.1-.82A5.1,5.1,0,0,1,136,83a.92.92,0,0,1,0-.26,1.37,1.37,0,0,1,.92-.31,1.46,1.46,0,0,1,.63.15A.56.56,0,0,1,137.89,83.08Z"/><path class="cls-9" d="M98,104a3.06,3.06,0,0,1-1.14,2.32,3.63,3.63,0,0,1-2.46,1,3.08,3.08,0,0,1-2.82-1.49,6.27,6.27,0,0,1-.74-3.26,7.93,7.93,0,0,1,.89-3.76,3.25,3.25,0,0,1,2.94-2.06,3,3,0,0,1,1.62.44,2.07,2.07,0,0,1,.95,1.35q.15.71.15.68,0,2-.9,2A.77.77,0,0,1,96,101a.56.56,0,0,1-.23-.45,1,1,0,0,1,.16-.44,1,1,0,0,0,.16-.45,2.31,2.31,0,0,0-.21-1.18,1.15,1.15,0,0,0-1.06-.44,1.89,1.89,0,0,0-1.49,1,4.75,4.75,0,0,0-.75,1.76,10.08,10.08,0,0,0-.18,1.8,6.67,6.67,0,0,0,.22,2A2,2,0,0,0,94,106a2.13,2.13,0,0,0,.54.09,1.92,1.92,0,0,0,1.14-.45,3.12,3.12,0,0,0,.81-.94,2,2,0,0,0,.19-.8l-.06,0a4.25,4.25,0,0,0-1.65.25l-.36.2a1,1,0,0,1-.37.1.66.66,0,0,1-.58-.31,1.25,1.25,0,0,1-.21-.71.62.62,0,0,1,.34-.54,6.35,6.35,0,0,1,1.41-.29,14.3,14.3,0,0,1,1.52-.13Q98,102.44,98,104Z"/><path class="cls-9" d="M103.92,105.67q0,.75-1,1.17a4.31,4.31,0,0,1-1.67.33q-2.31,0-2.31-2.62a6.57,6.57,0,0,1,.52-2.4q.65-1.62,1.56-1.62a3,3,0,0,1,1.78.73,2,2,0,0,1,1,1.53,1.8,1.8,0,0,1-.88,1.58,3.25,3.25,0,0,1-1.86.52,1.69,1.69,0,0,1-.67-.25q.06,1.43.84,1.42a2.53,2.53,0,0,0,1.3-.37,2.45,2.45,0,0,1,.82-.37C103.7,105.31,103.92,105.43,103.92,105.67Zm-1.64-2.83a1.3,1.3,0,0,0-.22-.71.66.66,0,0,0-.58-.34.85.85,0,0,0-.76.44,1.69,1.69,0,0,0-.22.89.6.6,0,0,0,.19.46.7.7,0,0,0,.5.18Q102.28,103.75,102.28,102.83Z"/><path class="cls-9" d="M108,101.62q0,.41-1.23.57,0,.33,0,1.5v1a6.41,6.41,0,0,0,.09.89,6.23,6.23,0,0,1,.09.87.54.54,0,0,1-.24.43.78.78,0,0,1-.48.19q-.37,0-.63-.65a2.61,2.61,0,0,1-.2-1v-3.18l-.79-.13q-.39-.12-.39-.35a.38.38,0,0,1,0-.13,1.09,1.09,0,0,1,.87-.56h.09l.09,0q.31,0,.3-.74V99.28a.71.71,0,0,1-.08-.29.44.44,0,0,1,.23-.35.78.78,0,0,1,.44-.16.83.83,0,0,1,.59.29.89.89,0,0,1,.28.62,2.32,2.32,0,0,1-.11.71,2.1,2.1,0,0,0-.1.73v.06Q108,101,108,101.62Z"/><path class="cls-9" d="M112.86,101.21a3.51,3.51,0,0,1-.12.77,3.5,3.5,0,0,0-.12.76v3.09a3.68,3.68,0,0,0,.18.9.62.62,0,0,1-.5.34.94.94,0,0,1-1-.94q-.15-1.75-.15-2.64a21.53,21.53,0,0,1,.12-2.49v-.15q0-.27.42-.27a2,2,0,0,1,.74.15C112.7,100.84,112.86,101,112.86,101.21Zm.13-2.1a.71.71,0,0,1-.22.54.78.78,0,0,1-.56.21,1.14,1.14,0,0,1-.73-.27.82.82,0,0,1-.34-.66.69.69,0,0,1,.23-.54.83.83,0,0,1,.58-.21,1.1,1.1,0,0,1,.72.26A.83.83,0,0,1,113,99.11Z"/><path class="cls-9" d="M116.74,101.62q0,.41-1.23.57,0,.33,0,1.5v1a6.41,6.41,0,0,0,.09.89,6.23,6.23,0,0,1,.09.87.54.54,0,0,1-.24.43.78.78,0,0,1-.48.19q-.37,0-.63-.65a2.61,2.61,0,0,1-.2-1v-3.18l-.79-.13q-.39-.12-.39-.35a.38.38,0,0,1,0-.13,1.09,1.09,0,0,1,.87-.56h.09l.09,0q.31,0,.3-.74V99.28a.71.71,0,0,1-.08-.29.44.44,0,0,1,.23-.35.78.78,0,0,1,.44-.16.83.83,0,0,1,.59.29.89.89,0,0,1,.28.62,2.32,2.32,0,0,1-.11.71,2.1,2.1,0,0,0-.1.73v.06Q116.74,101,116.74,101.62Z"/><path class="cls-9" d="M125.13,99.55a2.43,2.43,0,0,1-1.17,1.88,23.6,23.6,0,0,1-2.16,1.29q-1.17.66-1.17,1.09a1,1,0,0,0,.16.41,1,1,0,0,1,.15.54v.1a1.55,1.55,0,0,1-.37,0,1.52,1.52,0,0,1-.93-.36,1.08,1.08,0,0,1-.51-.84q0-.78,1.15-1.5L122.4,101q1.14-.72,1.14-1.47a1.09,1.09,0,0,0-.46-.92,1.71,1.71,0,0,0-1-.3,3.74,3.74,0,0,0-1.49.45,4.61,4.61,0,0,0-1.36.9q.57.14.57.5a.67.67,0,0,1-.32.52,1.05,1.05,0,0,1-.62.24,1.35,1.35,0,0,1-.84-.37,1,1,0,0,1-.45-.75q0-.6,1-1.44a5.45,5.45,0,0,1,1.59-1A5.13,5.13,0,0,1,121.8,97a3.83,3.83,0,0,1,2.13.73A2.27,2.27,0,0,1,125.13,99.55Zm-3.93,6.79q0,.22-.42.45a1.3,1.3,0,0,1-.63.21,1.11,1.11,0,0,1-.62-.23.63.63,0,0,1-.33-.51.58.58,0,0,1,.27-.47.91.91,0,0,1,.55-.2,1.61,1.61,0,0,1,.76.23Q121.2,106,121.2,106.34Z"/><path class="cls-11" d="M152.26,147.11c-11.87,0-34.4-4.37-44.71-35.3a1,1,0,1,1,1.9-.63c11.68,35,39.54,34.61,47.8,33.65a1,1,0,1,1,.23,2A45.37,45.37,0,0,1,152.26,147.11Z"/><polygon class="cls-11" points="151.39 154.36 149.91 153.01 156.57 145.74 148.83 139.62 150.08 138.05 159.5 145.5 151.39 154.36"/></g></svg>